<svg width="22" height="32" viewBox="0 0 22 32" fill="none" xmlns="http://www.w3.org/2000/svg">
<path d="M21.417 32H0L1.26819 25.3453C1.79244 22.5874 3.25446 20.0565 5.38102 18.2198L7.95247 16.0009L5.38102 13.7821C3.25261 11.9453 1.79244 9.41448 1.26819 6.65474L0 0H21.417L20.1488 6.65474C19.6246 9.41263 18.1644 11.9435 16.036 13.7821L13.4646 16.0009L16.036 18.2198C18.1644 20.0565 19.6246 22.5874 20.1488 25.3471L21.417 32ZM1.34202 30.8887H20.0731L19.056 25.5539C18.5779 23.0396 17.247 20.734 15.3087 19.0616L11.7626 16.0009L15.3087 12.9421C17.247 11.2678 18.5779 8.96222 19.056 6.44984L20.0731 1.11312H1.34202L2.35916 6.448C2.83727 8.96222 4.16821 11.2678 6.10649 12.9403L9.65261 15.9991L6.10649 19.0597C4.16821 20.734 2.83727 23.0396 2.35916 25.552L1.34202 30.8887Z" fill="#0F133B"/>
</svg>
