<svg width="24" height="24" viewBox="0 0 24 24" fill="none" xmlns="http://www.w3.org/2000/svg">
<path d="M18.8196 7.05695L21.6945 22.7554L1.46809 22.7566L4.07989 7.05815L18.8196 7.05695ZM19.8576 5.81232L3.02628 5.81352L0 24L23.1879 23.9988L19.8576 5.81232Z" fill="white"/>
<path d="M15.3993 11.7831C15.0557 11.7831 14.777 11.5044 14.777 11.1608V4.42709C14.777 2.67187 13.3485 1.24343 11.5933 1.24343C9.83808 1.24343 8.40964 2.67187 8.40964 4.42709V11.1608C8.40964 11.5044 8.13092 11.7831 7.78732 11.7831C7.44373 11.7831 7.16501 11.5044 7.16501 11.1608V4.42709C7.16621 1.98588 9.15209 0 11.5945 0C14.0357 0 16.0216 1.98588 16.0216 4.42709V11.1608C16.0216 11.5044 15.7429 11.7831 15.3993 11.7831Z" fill="white"/>
</svg>
