<?xml version="1.0" encoding="utf-8"?>
<!-- Generator: Adobe Illustrator 25.2.3, SVG Export Plug-In . SVG Version: 6.00 Build 0)  -->
<svg version="1.1" id="Layer_1" xmlns="http://www.w3.org/2000/svg"
	xmlns:xlink="http://www.w3.org/1999/xlink" x="0px" y="0px"
	viewBox="0 0 300 300" style="enable-background:new 0 0 300 300;" xml:space="preserve">
	 <style>g{fill:#fff;}</style>
	 <g>
	<g>
		<path d="M41.14,131.49h27.27v2.18c0,4.96-0.58,9.35-1.75,13.16c-1.14,3.53-3.06,6.84-5.77,9.92c-6.13,6.9-13.92,10.34-23.38,10.34
			c-9.23,0-17.14-3.33-23.72-10c-6.58-6.7-9.87-14.73-9.87-24.11c0-9.57,3.35-17.69,10.04-24.36c6.7-6.7,14.84-10.04,24.45-10.04
			c5.16,0,9.97,1.05,14.45,3.16c4.27,2.11,8.48,5.53,12.61,10.26l-7.09,6.8c-5.41-7.21-12.01-10.81-19.79-10.81
			c-6.98,0-12.84,2.41-17.57,7.22c-4.73,4.73-7.09,10.66-7.09,17.78c0,7.35,2.64,13.41,7.91,18.16c4.93,4.42,10.27,6.62,16.03,6.62
			c4.9,0,9.3-1.65,13.21-4.96c3.9-3.33,6.08-7.32,6.54-11.97H41.14V131.49z"/>
		<path d="M77.64,132.56c0-9.29,3.4-17.27,10.21-23.93c6.78-6.67,14.93-10,24.45-10c9.4,0,17.47,3.36,24.19,10.09
			c6.75,6.72,10.13,14.8,10.13,24.23c0,9.49-3.39,17.54-10.17,24.15c-6.81,6.64-15.03,9.96-24.66,9.96
			c-8.52,0-16.17-2.95-22.95-8.85C81.37,151.68,77.64,143.13,77.64,132.56z M87.69,132.69c0,7.29,2.45,13.29,7.35,17.99
			c4.87,4.7,10.5,7.05,16.88,7.05c6.92,0,12.76-2.39,17.52-7.18c4.76-4.84,7.14-10.74,7.14-17.69c0-7.04-2.35-12.94-7.05-17.69
			c-4.67-4.79-10.46-7.18-17.35-7.18c-6.87,0-12.67,2.39-17.39,7.18C90.05,119.89,87.69,125.73,87.69,132.69z"/>
		<path d="M169.1,139.05v26.8h-9.96V99.86h11.28c5.53,0,9.7,0.38,12.52,1.15c2.85,0.77,5.36,2.22,7.52,4.36
			c3.79,3.7,5.68,8.38,5.68,14.02c0,6.04-2.02,10.83-6.07,14.36c-4.05,3.53-9.5,5.3-16.37,5.3H169.1z M169.1,129.82h3.72
			c9.15,0,13.72-3.52,13.72-10.56c0-6.81-4.72-10.21-14.15-10.21h-3.29V129.82z"/>
		<path d="M240.35,149.82H212.1l-7.35,16.03h-10.73l32.65-70.14l31.5,70.14h-10.9L240.35,149.82z M236.29,140.46l-9.79-22.44
			l-10.26,22.44H236.29z"/>
		<path d="M280.95,109.22v56.63H271v-56.63h-15.17v-9.36h40.26v9.36H280.95z"/>
	</g>
	<g>
		<path d="M99.5,185.19h-5.54v3.82h5.34v2.25h-5.34v7.56h-2.4v-15.89h7.93V185.19z"/>
		<path d="M101.53,184.64c0-0.4,0.15-0.75,0.44-1.05c0.29-0.3,0.65-0.44,1.06-0.44c0.42,0,0.78,0.15,1.07,0.44
			c0.3,0.29,0.44,0.64,0.44,1.06c0,0.42-0.15,0.78-0.44,1.07c-0.29,0.3-0.64,0.44-1.06,0.44c-0.42,0-0.78-0.15-1.07-0.44
			C101.68,185.42,101.53,185.06,101.53,184.64z M104.19,188.8v10.02h-2.32V188.8H104.19z"/>
		<path d="M107.13,188.8h2.33v0.93c0.81-0.8,1.72-1.2,2.74-1.2c1.17,0,2.08,0.37,2.73,1.1c0.56,0.62,0.84,1.64,0.84,3.06v6.14h-2.33
			v-5.6c0-0.99-0.14-1.67-0.41-2.05c-0.27-0.38-0.76-0.58-1.46-0.58c-0.77,0-1.31,0.25-1.64,0.76c-0.32,0.5-0.47,1.38-0.47,2.62
			v4.84h-2.33V188.8z"/>
		<path d="M127.82,194.36h-7.18c0.06,0.82,0.33,1.48,0.8,1.97c0.47,0.48,1.08,0.72,1.82,0.72c0.58,0,1.05-0.14,1.43-0.41
			c0.37-0.27,0.79-0.78,1.27-1.52l1.95,1.09c-0.3,0.51-0.62,0.95-0.96,1.32s-0.7,0.67-1.08,0.91c-0.38,0.24-0.8,0.41-1.25,0.52
			c-0.45,0.11-0.93,0.16-1.45,0.16c-1.5,0-2.7-0.48-3.6-1.44c-0.91-0.97-1.36-2.25-1.36-3.85c0-1.59,0.44-2.87,1.32-3.85
			c0.89-0.97,2.06-1.45,3.52-1.45c1.47,0,2.64,0.47,3.5,1.41c0.85,0.93,1.28,2.23,1.28,3.88L127.82,194.36z M125.44,192.47
			c-0.32-1.24-1.1-1.85-2.34-1.85c-0.28,0-0.55,0.04-0.79,0.13c-0.25,0.09-0.47,0.21-0.67,0.37c-0.2,0.16-0.38,0.36-0.52,0.58
			c-0.14,0.23-0.25,0.48-0.33,0.77H125.44z"/>
		<path d="M142.13,182.94v10.28c0,1.23-0.09,2.14-0.26,2.75c-0.17,0.69-0.46,1.27-0.88,1.74c-0.8,0.94-1.87,1.41-3.19,1.41
			c-1,0-1.94-0.26-2.81-0.78l1.17-2.05c0.58,0.39,1.13,0.59,1.64,0.59c0.71,0,1.21-0.27,1.48-0.81c0.29-0.54,0.43-1.49,0.43-2.84
			v-10.28H142.13z"/>
		<path d="M154.63,194.36h-7.18c0.06,0.82,0.33,1.48,0.8,1.97c0.47,0.48,1.08,0.72,1.82,0.72c0.58,0,1.05-0.14,1.43-0.41
			c0.37-0.27,0.79-0.78,1.27-1.52l1.96,1.09c-0.3,0.51-0.62,0.95-0.96,1.32c-0.34,0.37-0.7,0.67-1.08,0.91
			c-0.38,0.24-0.8,0.41-1.25,0.52c-0.45,0.11-0.93,0.16-1.45,0.16c-1.5,0-2.7-0.48-3.6-1.44c-0.91-0.97-1.36-2.25-1.36-3.85
			c0-1.59,0.44-2.87,1.32-3.85c0.89-0.97,2.06-1.45,3.52-1.45c1.47,0,2.64,0.47,3.5,1.41c0.85,0.93,1.28,2.23,1.28,3.88
			L154.63,194.36z M152.25,192.47c-0.32-1.24-1.1-1.85-2.34-1.85c-0.28,0-0.55,0.04-0.79,0.13c-0.25,0.09-0.47,0.21-0.67,0.37
			c-0.2,0.16-0.38,0.36-0.52,0.58c-0.14,0.23-0.25,0.48-0.33,0.77H152.25z"/>
		<path d="M158.09,188.8l2.62,5.72l2.83-6.64l2.85,6.64l2.59-5.72h2.59l-5.25,10.78l-2.79-6.45l-2.82,6.45l-5.24-10.78H158.09z"/>
		<path d="M181.96,194.36h-7.18c0.06,0.82,0.33,1.48,0.8,1.97c0.47,0.48,1.08,0.72,1.82,0.72c0.58,0,1.05-0.14,1.43-0.41
			c0.37-0.27,0.79-0.78,1.27-1.52l1.96,1.09c-0.3,0.51-0.62,0.95-0.96,1.32c-0.34,0.37-0.7,0.67-1.08,0.91
			c-0.38,0.24-0.8,0.41-1.25,0.52c-0.45,0.11-0.93,0.16-1.45,0.16c-1.5,0-2.7-0.48-3.6-1.44c-0.91-0.97-1.36-2.25-1.36-3.85
			c0-1.59,0.44-2.87,1.32-3.85c0.89-0.97,2.06-1.45,3.52-1.45c1.47,0,2.64,0.47,3.5,1.41c0.85,0.93,1.28,2.23,1.28,3.88
			L181.96,194.36z M179.59,192.47c-0.32-1.24-1.1-1.85-2.34-1.85c-0.28,0-0.55,0.04-0.79,0.13c-0.25,0.09-0.47,0.21-0.67,0.37
			c-0.2,0.16-0.38,0.36-0.52,0.58c-0.14,0.23-0.25,0.48-0.33,0.77H179.59z"/>
		<path d="M186.81,181.45v17.38h-2.32v-17.38H186.81z"/>
		<path d="M189.74,188.8h2.32v0.9c0.43-0.45,0.8-0.75,1.13-0.92c0.34-0.17,0.73-0.26,1.19-0.26c0.61,0,1.25,0.2,1.91,0.6l-1.06,2.12
			c-0.44-0.32-0.87-0.47-1.29-0.47c-1.26,0-1.89,0.95-1.89,2.86v5.2h-2.32V188.8z"/>
		<path d="M201.71,196.97l-4.51-8.16h2.69l3.07,5.76l2.86-5.76h2.61l-7.99,15.48h-2.65L201.71,196.97z"/>
	</g>
</g>
</svg>